<svg width="16" height="11" viewBox="0 0 16 11" fill="none" xmlns="http://www.w3.org/2000/svg">
<path d="M14.056 10.1311L12.776 10.6111L12.296 9.58713L11.336 9.58713L11.432 8.62712L10.856 7.41112L10.088 7.37912L9.832 6.22712L9.352 5.10712L8.072 3.85912L7.016 3.98712L6.632 4.69112L5.416 6.22712L5.032 7.57112L3.912 8.05112L3.752 9.49112L3.176 9.65112L2.152 10.1311L0.807999 9.61912L0.487999 8.97912L0.487999 8.30712L1.608 6.13112L2.248 5.10712L2.952 4.94712L3.304 4.24312L3.944 3.89112L5.128 2.06712L5.128 1.52312L6.696 0.371124L8.168 0.851124L9.256 2.06712L10.536 2.61112L10.632 3.73112L11.592 4.24312L12.552 5.10712L12.776 5.97112L13.512 5.93912L13.608 6.13112L13.992 6.13112L14.152 6.64312L13.992 7.41112L15.112 7.57112L14.792 9.10712L14.056 10.1311Z" fill="black"/>
</svg>
