<?xml version="1.0" encoding="utf-8"?>
<svg version="1.1" id="Слой_1" xmlns="http://www.w3.org/2000/svg" xmlns:xlink="http://www.w3.org/1999/xlink" x="0px" y="0px"
	 viewBox="0 0 380.44 351.11" style="enable-background:new 0 0 380.44 351.11;" xml:space="preserve">
<g>
	<g>
		<path d="M338.01,190.25c-1.48,0.08-3.07-0.23-4.63-0.79c-0.38-0.13-0.93-0.22-1.24-0.04c-1.54,0.87-3.18,0.22-4.75,0.36
			c-0.47,0.04-1.11-0.22-1.44-0.57c-1.08-1.11-2.33-0.86-3.48-0.44c-2.08,0.76-4.17,1.11-6.4,1.08c-6.12-0.09-12.24-0.03-18.36-0.02
			c-0.69,0-1.49-0.12-2.06,0.17c-0.69,0.35-1-0.5-1.66-0.21c-0.85,0.36-1.83,0.38-2.7,0.69c-0.91,0.33-1.69,0.27-2.52-0.21
			c-1.13-0.66-2.35-0.73-3.47,0c-0.9,0.58-1.88,0.54-2.8,0.35c-2.03-0.4-2-0.38-3.76-0.04c-1.02,0.2-2.24,0.39-3.13,0.02
			c-0.96-0.4-1.67,0.01-2.45,0.12c-2.35,0.31-4.48,1.46-5.56,3.46c-0.81,1.5-1.71,2.97-2.37,4.56c0.39,0.96-1,1.15-0.86,1.99
			c-0.94,0.46-0.98,1.5-1.2,2.27c-0.31,1.06-0.82,1.95-1.36,2.86c-0.61,1.02-0.78,2.28-1.7,3.14c0.18,0.69-0.36,0.99-0.71,1.42
			c-0.34,0.42-0.75,0.84-0.89,1.33c-0.45,1.53-1.31,2.87-1.89,4.34c-0.56,1.41-1.21,2.77-1.67,4.22c-0.25,0.8-0.74,1.6-1.32,2.21
			c-0.78,0.81-1.14,1.82-1.62,2.76c-0.62,1.21-1.16,2.46-2.28,3.33c-0.52,0.41-0.82,0.89-0.75,1.62c0.03,0.35-0.18,0.79-0.41,1.09
			c-0.95,1.22-1.37,2.72-2.11,4.04c-0.22,0.4-0.21,1.01-0.52,1.26c-1.23,0.97-1.48,2.64-2.69,3.61c-0.97,0.78-1.6,1.81-2.15,2.95
			c-1.33,2.73-2.8,5.39-4.2,8.09c-0.39,0.76-0.85,1.53-1.02,2.34c-0.17,0.82-1.32,1.16-0.97,2.17c-1.04,1.12-1.32,2.57-1.82,3.95
			c-0.33,0.92-0.95,1.73-1.4,2.61c-0.72,1.4-1.49,2.81-2.3,4.18c-0.76,1.29-0.74,2.96-1.71,4.2c0.18,1.4-0.89,2.19-1.49,3.23
			c-0.59,1.02-0.97,2.16-1.55,3.2c-0.59,1.05-1.57,1.93-1.27,3.32c-0.84,0.58-0.73,1.71-1.41,2.42c-0.38,0.4-0.76,1.11-0.68,1.6
			c0.18,1.07-0.45,1.88-0.98,2.35c-0.59,0.52-0.84,1.11-1.04,1.72c-0.4,1.21-0.8,2.39-1.68,3.37c-0.16,0.18-0.11,0.52-0.21,0.76
			c-0.58,1.33-0.81,2.83-1.91,3.91c-0.39,2.28-2.6,3.7-2.85,6.1c-0.05,0.52-0.3,1.53-1.32,1.62c-0.12,0.01-0.36,0.47-0.29,0.63
			c0.31,0.76-0.59,1.47-0.04,2.23c0.06,0.09-0.08,0.41-0.21,0.53c-0.77,0.71-0.99,1.73-1.48,2.6c-0.22,0.4-0.32,0.94-0.65,1.21
			c-1.18,0.98-1.44,2.41-1.87,3.72c-0.26,0.77-1.34,1.15-0.98,2.16c-0.55,0.63-0.76,1.4-0.91,2.19c-0.15,0.82-1.32,0.94-1.22,2.05
			c0.06,0.69-0.45,1.52-0.89,2.15c-1,1.45-1.59,3.04-2.05,4.71c-0.08,0.31-0.35,0.57-0.5,0.86c-0.41,0.83-0.8,1.66-1.2,2.49
			c-0.14,0.3-0.37,0.58-0.41,0.89c-0.12,0.88-1.62,0.71-1.37,2.01c0.12,0.66-0.32,1.63-0.82,2.16c-1.16,1.24-1.45,2.88-1.98,4.32
			c-0.63,1.74-1.58,3.12-2.81,4.39c-0.79,0.82-1.58,1.64-2.42,2.41c-1.43,1.31-2.75,1.72-4.67,0.07c-0.05-0.05-0.1-0.1-0.15-0.15
			c-0.79-0.85-1.62-1.52-1.74-2.93c-0.15-1.63-1.49-2.91-2.18-4.41c-1.12-0.54-0.91-1.98-1.81-2.67c-0.09-0.07-0.15-0.25-0.13-0.36
			c0.19-1.04-0.51-1.79-0.88-2.63c-0.66-1.51-1.44-2.96-2.11-4.47c-0.3-0.68-0.76-1.27-1.07-1.91c-0.58-1.17-1.53-2.2-1.53-3.64
			c0-0.37-0.17-0.82-0.42-1.09c-1.33-1.49-1.69-3.45-2.63-5.1c-0.89-1.55-1.09-3.54-2.72-4.65c-0.32-2.14-2.12-3.65-2.39-5.86
			c-0.1-0.84-0.47-1.74-1.19-2.5c-0.91-0.97-1.31-2.39-2.46-3.22c-0.1-0.94-0.76-1.75-0.57-2.76c0.15-0.81-0.12-1.45-0.76-2.05
			c-0.45-0.42-0.88-1.15-0.87-1.73c0.01-0.69-0.34-1.2-0.57-1.71c-0.2-0.45-0.31-1.24-1.13-1.21c-0.17-0.92-1.06-1.58-0.94-2.61
			c0.02-0.19-0.01-0.45-0.13-0.58c-1.41-1.58-1.15-4.02-2.84-5.46c-0.23-0.19-0.42-0.58-0.42-0.88c0.02-0.81-0.34-1.38-0.72-2.07
			c-0.35-0.64-0.61-1.32-1.14-1.87c-0.17-0.18-0.29-0.48-0.29-0.72c0.03-1.17-0.71-2-1.25-2.9c-0.42-0.7-1-1.31-0.89-2.19
			c0.11-0.86-1.25-1.04-0.86-2c-0.87-1.49-1.32-3.19-2.58-4.5c-0.96-1-1.2-2.48-1.67-3.77c-0.36-0.99-0.83-1.92-1.02-3.02
			c-0.17-0.97-1.17-1.76-1.7-2.69c-0.46-0.79-0.75-1.68-1.15-2.51c-0.4-0.83-1.13-1.62-1.2-2.47c-0.09-1.01-0.44-1.67-1.11-2.35
			c-0.44-0.45-0.8-1.12-0.89-1.74c-0.15-0.99-0.78-1.56-1.39-2.22c-0.41-0.44-0.74-0.96-1.06-1.48c-1.15-1.82-2.62-3.42-3.63-5.33
			c-1.09-2.05-2.49-3.93-3.51-6.02c-0.46-0.94-0.81-1.95-1.3-2.88c-0.61-1.17-1.34-2.29-1.97-3.46c-0.53-0.98-1.01-2-1.48-3.01
			c-1.08-2.33-1.59-4.94-3.34-6.95c-0.24-0.28-0.46-0.74-0.42-1.08c0.1-1-0.24-1.57-1.22-1.84c-0.21-0.06-0.49-0.41-0.49-0.62
			c0-1.09-0.8-1.82-1.16-2.73c-0.53-1.36-1.13-2.67-1.82-3.95c-0.47-0.87-0.51-1.9-1.33-2.68c-0.65-0.62-0.84-1.62-1.49-2.37
			c-0.7-0.81-0.85-2.05-1.48-2.99c-0.07-0.1,0.05-0.35-0.02-0.41c-1.08-0.88-1.21-2.22-1.55-3.42c-0.39-1.37-1.13-2.46-2.16-3.37
			c-0.46-0.41-0.87-1.04-1.39-1.17c-0.59-0.15-1.34-0.29-1.98,0.32c-0.26,0.25-1.04,0.21-1.44,0.01c-1.62-0.81-3.31-0.28-4.96-0.38
			c-1.7-0.1-3.42-0.05-5.12,0c-0.51,0.02-1.02,0.39-1.53,0.38c-0.94-0.02-1.85,0.08-2.84-0.32c-1.2-0.48-2.61-0.04-3.79,0.49
			c-0.68,0.31-1.05,0.3-1.65-0.11c-0.46-0.32-1.14-0.33-1.72-0.46c-1.25-0.28-1.95,0.62-2.73,1.31c-0.43,0.38-0.37,0.41-0.87-0.08
			c-0.52-0.51-1.28-0.77-1.92-0.75c-1.15,0.04-2.39-0.5-3.47,0.36c-0.13,0.1-0.48,0.1-0.62,0c-1.09-0.75-2.31-0.4-3.46-0.39
			c-3.16,0.04-6.26-0.64-9.43-0.48c-3.2,0.15-6.4,0.03-9.61,0.03s-6.41-0.02-9.61,0.01c-0.58,0.01-1.04-0.29-1.54-0.39
			c-0.68-0.13-1.35-0.23-1.29-1c0.05-0.64,0.08-1.4,1.04-1.69c0.67-0.21,1.18-0.89,1.81-1.3c0.66-0.44,1.51-0.69,2.02-1.25
			c0.48-0.53,1.5-0.49,1.52-1.45c1.25-0.77,2.41-1.79,3.76-2.26c1.67-0.59,3.01-1.5,4.22-2.72c1.45-1.47,2.98-2.85,4.87-3.72
			c0.49-0.23,0.28-1.14,1.07-0.93c1.24-1.52,2.87-2.5,4.59-3.36c0.33-1.01,1.43-1.02,2.07-1.6c0.74-0.67,1.42-1.4,2.12-2.11
			c0.15-0.15,0.28-0.39,0.46-0.44c1.87-0.47,3.05-2.13,4.83-2.78c0.44-0.16,1.22-0.33,1.2-1.14c1.25-1.11,2.49-2.23,3.76-3.31
			c0.46-0.39,1.01-0.66,1.5-1.02c0.55-0.4,1.1-1.2,1.61-1.17c0.88,0.05,0.43-1.33,1.31-0.96c2.55-2.26,5.34-4.25,7.65-6.79
			c0.79-0.86,0.95-2.66,0.29-3.62c-0.3-0.44-0.55-0.95-0.92-1.32c-0.35-0.34-0.42-0.69-0.41-1.12c0.04-1.44-0.45-2.77-0.94-4.09
			c-0.07-0.18-0.34-0.35-0.32-0.5c0.27-1.78-0.96-2.89-1.78-4.19c-0.17-0.27-0.36-0.61-0.35-0.91c0.07-1.85,0.01-2.27-0.76-4.47
			c-0.09-0.25-0.14-0.54-0.11-0.8c0.1-0.85-0.04-1.71-0.54-2.33c-0.49-0.61-0.34-1.21-0.3-1.8c0.09-1.41-0.24-2.7-0.9-3.91
			c-0.31-0.57-0.43-1.13-0.42-1.75c0.02-1.14-0.02-2.28,0.01-3.42c0.03-0.97,0.02-1.95-0.45-2.8c-0.47-0.85-0.36-1.72-0.41-2.61
			c-0.12-2.11,0.38-4.27-0.77-6.31c-0.32-0.56-0.16-1.55,0.08-2.24c0.34-0.97,0.39-1.81-0.01-2.76c-0.29-0.69-0.19-1.4,0.13-2.17
			c0.4-0.98,0.7-2.05,0.6-3.18c-0.09-0.99-0.03-1.99-0.02-2.99c0.01-1.09-0.15-2.2,0.66-3.15c0.19-0.22,0.18-0.65,0.19-0.98
			c0.03-0.78,0.03-1.57,0-2.35c-0.03-0.98,0.06-1.87,0.71-2.71c0.6-0.78,0.47-1.97,1.37-2.63c0.08-0.06,0.05-0.26,0.05-0.4
			c0.07-1.08-0.37-2.3,0.86-3.06c0.13-1.01,0.25-2.02,1.06-2.77c0.1-0.09,0.24-0.27,0.21-0.33c-0.52-1.06,0.79-1.34,0.9-2.17
			c0.11-0.8,0.88-1.36,1.18-2.06c0.27-0.63,1.08-0.61,1.18-1.41c0.06-0.53,0.92-0.98,0.94-1.49c0.04-0.81,0.53-1.22,0.92-1.78
			c1.65-2.34,3.11-4.81,5.17-6.83c0.33-0.32,0.51-0.8,0.82-1.15c0.81-0.9,0.74-2.27,1.98-3.04c1.06-0.66,1.74-1.94,2.62-2.92
			c0.36-0.41,0.7-0.83,1.4-0.79c0.26,0.01,0.8-0.52,0.78-0.78c-0.07-1.27,1.04-1.28,1.72-1.72c0.27-0.17,0.78-0.09,0.92-0.3
			c0.82-1.22,2.22-1.57,3.38-2.22c1.21-0.68,1.77-1.74,2.07-2.87c0.21-0.76-0.14-1.74-0.42-2.56c-0.52-1.56-0.75-3.22-1.61-4.68
			c-0.22-0.37-0.06-0.98-0.03-1.47c0.04-0.64-0.07-1.22-0.43-1.75c-0.03-0.05,0.01-0.17-0.03-0.2c-0.91-0.76,0.07-2-0.62-2.72
			c-0.66-0.69-0.84-1.55-1.01-2.36c-0.14-0.67-0.14-1.42,0.3-2.2c0.39-0.71-0.31-1.64-0.68-2.42c-0.12-0.24-0.52-0.46-0.49-0.63
			c0.25-1.38-1.16-2.32-0.91-3.71c0.15-0.83-0.01-1.71,0.04-2.56c0.06-1.01-0.11-1.93-0.9-2.61c-0.38-0.33-0.39-0.7-0.4-1.13
			c-0.03-1.16-0.69-2.25-0.42-3.45c-0.84-0.99-0.27-2.16-0.41-3.24c-0.02-0.15,0.14-0.43,0.26-0.47c0.16-0.05,0.47,0.05,0.54,0.18
			c0.41,0.8,1.43,0.43,1.93,1.04c0.45,0.54,0.92,0.99,1.76,0.94c0.76-0.05,0.21,1.32,1.15,1.24c0.33,0.66,1.04,0.9,1.52,1.4
			c0.54,0.57,1.17,1.06,1.64,1.68c0.69,0.9,1.23,1.9,2.53,2.11c0.28,0.04,0.62,0.43,0.74,0.73c0.46,1.18,1.56,1.58,2.49,2.2
			c0.11,0.07,0.28,0.09,0.34,0.19c1.01,1.7,2.94,2.14,4.38,3.25c1.03,0.79,2.02,1.64,2.65,2.87c0.55,1.09,1.43,1.92,2.82,1.8
			c0.45-0.04,0.78,0.09,1.11,0.44c0.85,0.89,1.62,1.88,2.95,2.16c0.29,0.06,0.5,0.48,0.76,0.72c1.6,1.46,3.1,3.06,4.83,4.35
			c2.55,1.9,4.66,4.3,7.29,6.09c0.18,0.12,0.15,0.54,0.32,0.7c1.04,0.99,1.97,2.04,3.35,2.7c1.26,0.6,2.31,1.69,3.33,2.72
			c1.63,1.64,2.1,2.17,4.01,2.67c2.02,0.52,3.67,1.7,5.21,2.85c1.95,1.46,4.02,2.72,6.05,4.04c1.79,1.16,3.61,2.29,5.39,3.47
			c0.23,0.15,0.58,0.37,0.59,0.57c0.05,0.99,0.94,1.28,1.53,1.42c0.96,0.23,1.27,1.17,2.17,1.51c0.75,0.28,1.52,0.97,1.99,1.84
			c0.42,0.78,1.36,1.15,1.71,2.07c0.17,0.46,0.73,0.83,1.19,1.12c1.81,1.13,3.5,2.37,5.01,3.89c1.74,1.75,4.46,1.73,6.26,0.09
			c0.91-0.82,2.03-1.42,2.88-2.28c0.84-0.85,1.8-1.39,2.88-1.77c0.68-0.24,0.88-0.99,1.59-1.24c0.53-0.19,0.8-0.88,1.59-0.84
			c0.76,0.04,0.52-1.23,1.35-1.25c0.9-1.21,2.63-1.03,3.6-2.14c0.78,0.2,1.15-0.4,1.57-0.84c0.95-1,2.29-1.41,3.45-2.02
			c1.23-0.65,2.45-1.3,3.62-2.05c0.06-0.04,0.11-0.15,0.15-0.14c1.32,0.32,1.96-0.81,2.85-1.37c0.86-0.53,1.62-1.23,2.46-1.8
			c0.66-0.45,1.45-0.57,2.11-1.13c0.67-0.57,1.21-1.58,2.39-1.32c0.35-0.94,1.4-1.14,1.98-1.87c0.5-0.64,1.05-1.36,2.09-1.15
			c0.13,0.03,0.34-0.29,0.49-0.46c0.37-0.41,0.69-0.89,1.11-1.24c0.88-0.74,1.73-1.56,2.73-2.08c1.6-0.84,2.99-1.89,4.24-3.17
			c0.57-0.58,1.22-1.14,1.95-1.48c0.43-0.2,0.57-0.66,0.73-0.71c0.71-0.25,0.9-1.09,1.85-1.2c0.79-0.09,1.48-1.1,2.23-1.68
			c1.78-1.37,3.55-2.74,5.37-4.07c0.53-0.39,1.22-0.55,1.74-0.94c0.56-0.42,1.02-0.99,1.53-1.49c0.1-0.09,0.24-0.26,0.32-0.24
			c1.28,0.39,1.49-0.87,2.17-1.4c0.47-0.36,1.23-0.66,1.33-1.11c0.2-0.95,0.94-0.27,1.34-0.65c0.73-0.7,1.62-1.23,2.34-1.96
			c0.6-0.61,1.22-1.2,1.81-1.82c0.53-0.56,1.48-0.2,1.95-1.03c0.33-0.58,0.93-1.1,1.53-1.39c0.41-0.19,0.39-0.42,0.54-0.7
			c0.15-0.27,0.56-0.64,0.78-0.59c1.15,0.24,1.65-0.62,2.28-1.24c0.82-0.79,1.6-1.62,2.42-2.41c0.52-0.49,0.79-1.01,0.93-1.77
			c0.15-0.79,0.79-1.54,1.34-2.2c0.71-0.84,1.53-1.57,2.5-2.16c0.93-0.57,1.73-1.36,2.55-2.09c0.77-0.68,1.78-0.79,2.62-0.22
			c0.12,0.08,0.19,0.22,0.31,0.3c1.48,1.03,1.44,1.02,0.95,2.92c-0.2,0.79-0.12,1.61-0.89,2.23c-0.25,0.2-0.08,0.94-0.06,1.44
			c0.05,1.18-0.23,2.25-0.83,3.29c-0.42,0.73-0.58,1.6-0.88,2.41c-0.21,0.55-0.35,1.17-0.7,1.63c-0.99,1.29-1.42,2.71-1.45,4.32
			c-0.02,1.07,0.43,2.29-0.78,3.11c-0.14,0.09-0.01,0.54-0.07,0.81c-0.12,0.59-0.09,1.41-0.46,1.7c-0.97,0.76-0.99,1.76-0.78,2.67
			c0.34,1.41-0.92,2.23-1.01,3.46c-0.04,0.5-0.26,1.08-0.6,1.43c-0.44,0.45-0.36,1.12-0.63,1.44c-0.97,1.16-0.75,2.46-0.79,3.75
			c-0.01,0.47,0.17,1-0.36,1.34c-1.27,0.81-0.87,2.1-0.89,3.25c0,0.14,0.33,0.3,0.52,0.44c1.73,1.26,3.54,2.38,5.39,3.47
			c1.6,0.94,2.93,2.32,3.91,3.97c0.41,0.7,0.99,1.3,1.47,1.96c0.56,0.75,1.73,1.11,1.51,2.36c0.72,0.75,1.48,1.43,1.99,2.38
			c0.51,0.94,1.05,2.05,1.89,2.58c0.93,0.58,0.79,1.95,1.96,2.16c-0.21,1.08,0.9,1.16,1.32,1.77c0.41,0.6,0.72,1.26,1.07,1.9
			c0.5,0.93,0.55,2.11,1.51,2.79c-0.24,1.24,0.75,1.97,1.21,2.91c0.46,0.95,1.05,1.85,1.41,2.83c0.94,2.53,1.85,5.07,2.96,7.53
			c0.08,0.18,0.06,0.41,0.05,0.62c-0.09,1.07,0.16,1.98,0.83,2.87c0.71,0.93,0.79,2.31,0.36,3.17c-0.52,1.03,0.33,1.63,0.18,2.43
			c0.9,0.95,0.83,2.15,0.76,3.31c-0.12,1.89,0.65,3.68,0.47,5.59c-0.16,1.84-0.06,3.7-0.03,5.55c0.02,0.98-0.07,1.88-0.6,2.75
			c-0.23,0.38-0.41,1.04-0.23,1.36c0.9,1.58,0.32,3.08-0.2,4.52c-0.28,0.78-0.41,1.48-0.1,2.17c0.39,0.9,0.13,1.62-0.09,2.51
			c-0.35,1.42-1.27,2.75-0.93,4.33c0.02,0.12-0.02,0.28-0.09,0.38c-0.75,1.23-0.85,2.57-0.75,3.96c0.06,0.91-0.24,1.7-0.56,2.54
			c-0.78,2.1-1.56,4.21-2.06,6.42c-0.27,1.18-0.3,2.58-1.44,3.45c-0.1,0.07-0.19,0.22-0.2,0.34c-0.07,0.88,0.27,1.87-0.45,2.58
			c-0.72,0.7-0.01,1.82-0.84,2.44c0,1.21-0.05,2.42,0.04,3.63c0.02,0.29,0.48,0.69,0.81,0.79c1.07,0.34,1.1,1.58,1.88,2.08
			c0.75,0.48,1.65,0.57,2.13,1.62c0.31,0.67,1.37,0.99,2.12,1.44c0.22,0.13,0.62,0.1,0.73,0.27c0.86,1.36,2.39,1.84,3.63,2.64
			c0.59,0.38,1.26,0.76,1.54,1.3c0.4,0.78,1.21,1.07,1.63,1.65c1.42,1.9,4.18,2.25,5.15,4.61c0.05,0.13,0.35,0.22,0.53,0.21
			c1.3-0.04,2.06,0.85,2.87,1.65c0.64,0.64,1.2,1.41,2.27,1.36c0.2-0.01,0.51-0.02,0.59,0.1c0.97,1.44,2.79,1.76,3.89,3.01
			c0.59,0.68,1.06,1.41,2.05,1.68c0.61,0.16,1.18,0.69,1.63,1.18c1.12,1.24,2.45,2.23,3.91,2.97c1.53,0.78,2.66,2.07,4.14,2.9
			c0.35,0.19,0.7,0.37,1.06,0.54c0.77,0.38,1.6,0.67,2.3,1.14c0.94,0.64,1.87,1.23,2.94,1.67c1.35,0.56,2.37,1.59,3.01,2.96
			c0.39,0.83,0.2,1.48-0.65,1.92C340.67,190.25,340.67,190.25,338.01,190.25z M200.92,170.98c2.12,0.22,3.9-0.17,5.63-1.19
			c1.51-0.9,2.37-1.99,2.29-3.77c-0.02-0.46-0.02-1.18,0.24-1.35c0.77-0.49,0.3-1.53,1.02-1.96c-0.42-1.01,0.86-1.31,0.9-2.21
			c0.03-0.61,0.84-1.26,0.73-1.77c-0.15-0.72,1.1-1.17,0.22-1.86c0.31-0.54,0.65-1.07,0.9-1.64c0.16-0.36,0.16-0.79,0.24-1.18
			c0.07-0.33,0.09-0.69,0.24-0.96c0.78-1.38,1.67-4.15,1.92-5.62c0.12-0.69,0.66-1.31,0.79-2.01c0.14-0.76-0.03-1.57,0.07-2.34
			c0.03-0.28,0.42-0.54,0.69-0.77c0.39-0.34,0.67-0.7,0.57-1.27c-0.03-0.2-0.06-0.54,0.04-0.61c1.21-0.8,0.67-2.03,0.82-3.09
			c0.05-0.38,0.18-0.79,0.39-1.11c0.95-1.44,2.13-4.94,2.16-6.58c0.01-0.82-0.2-1.6-0.34-2.4c-0.17-0.94-0.27-1.76-1.1-2.34
			c-0.23-0.16-0.5-0.36-0.59-0.6c-0.51-1.32-1.55-1.97-2.81-2.45c-0.55-0.21-1.03-0.62-1.5-1c-0.6-0.48-1.09-1.35-1.73-1.46
			c-0.93-0.17-0.56-1.45-1.55-1.4c-0.34,0.02-0.12-0.63-0.66-0.87c-0.91-0.4-1.69-1.13-2.45-1.8c-2.28-1.99-4.41-4.17-7.06-5.68
			c-0.62-0.36-0.74-1.24-1.56-1.24c-0.01-0.93-1.45-0.71-1.41-1.76c0.01-0.14-0.81-0.29-0.84-0.88c0-0.05-0.27-0.04-0.36-0.13
			c-1.24-1.18-2.96-1.66-4.13-3c-0.56-0.64-1.58-1.11-2.44-1.21c-1.49-0.17-3.09-0.31-4.5,0.4c-0.67,0.34-1.3,0.33-1.97,0.41
			c-1.07,0.13-2.06,0.42-2.92,1.21c-0.89,0.81-1.9,1.55-2.96,2.1c-0.89,0.46-1.75,0.76-2.24,1.8c-0.41,0.87-1.41,1.18-2.3,1.57
			c-0.61,0.27-0.98,1.03-1.54,1.45c-0.52,0.39-1.14,0.69-1.75,0.91c-0.83,0.29-1.32,0.85-1.64,1.63c-1.81,0.22-2.78,1.64-3.99,2.74
			c-0.76,0.69-1.56,1.35-2.39,1.96c-1.38,1.03-2.89,1.92-3.84,3.43c-0.87,0.19-1.04,1.59-2.22,1.28c-0.12-0.03-0.32-0.01-0.39,0.06
			c-0.92,1.04-1.82,2.09-2.72,3.14c-0.04,0.04-0.01,0.14,0,0.21c0.12,1.82-0.54,3.82,1.21,5.26c0.06,0.89,1.25,1.27,0.95,2.4
			c-0.61,2.28,1.35,4.07,1.31,6.27c1.08,0.64,0.8,1.71,0.78,2.66c-0.02,0.94,0.18,1.75,0.87,2.42c0.65,0.62,0.74,1.55,1.2,2.29
			c0.38,0.62,0.02,1.67,0.1,2.51c0.07,0.79,0.9,1.34,0.84,2.21c-0.01,0.14-0.05,0.3,0.01,0.42c0.41,0.97,0.14,2.17,1.03,3
			c0.17,0.16,0.23,0.49,0.24,0.74c0.04,1.65,0.84,3.09,1.37,4.56c0.35,0.96,0.85,1.81,0.78,2.88c-0.02,0.25,0.06,0.55,0.19,0.77
			c1.03,1.7,1.85,3.51,2.76,5.27c0.56,1.07,1.47,1.58,2.46,1.55c2.95-0.09,5.87,0.47,8.79,0.44
			C185.54,171.34,193.33,171.9,200.92,170.98z M99.49,103.57c-0.04,0-0.08,0.01-0.12,0.01c0.18,3,0.36,6,0.55,9
			c0.02,0.26,0.13,0.51,0.18,0.78c0.22,1.12,0.52,2.23,0.64,3.36c0.12,1.08,0.1,2.1,0.64,3.17c0.45,0.89,0.94,1.98,1.02,2.96
			c0.13,1.56,1.43,2.59,1.48,4.11c1.18,1.19,1.43,2.82,2.01,4.29c0.78,2,2.89,2.38,4.23,0.75c-0.14-0.83,0.68-0.75,1.05-1
			c2.51-1.67,5.25-2.99,7.53-5.01c0.55-0.49,1.12-0.99,1.76-1.32c1.39-0.71,2.28-2.13,3.84-2.59c0.12-0.04,0.29-0.19,0.29-0.29
			c0.05-1.07,1.03-1.3,1.69-1.53c1.71-0.59,1.66-2.4,2.67-3.43c-0.35-1.74,0.75-3.66-0.72-5.26c-0.15-0.17-0.09-0.52-0.14-0.79
			c-0.14-0.87-0.12-1.8-0.46-2.58c-0.55-1.28-0.94-2.53-0.83-3.93c0.02-0.23-0.18-0.68-0.26-0.67c-0.71,0.03-0.58-0.45-0.58-0.86
			c0-1.07,0.36-2.33-0.08-3.16c-0.73-1.36-1.48-2.6-1.21-4.21c0.02-0.1-0.1-0.27-0.2-0.33c-0.85-0.51-0.61-1.33-0.64-2.09
			c-0.02-0.41,0.07-0.92-0.13-1.22c-0.95-1.43-0.9-3.2-1.61-4.68c-0.62-1.28,0.06-2.93-1.23-3.99c-0.1-0.09-0.03-0.41-0.01-0.62
			c0.09-1.21-0.08-2.32-1.03-3.21c-0.17-0.16-0.29-0.52-0.23-0.74c0.39-1.49-1.11-2.47-0.99-3.87c-0.66-0.4-0.58-1.19-0.93-1.75
			c-0.47-0.75-0.17-1.51-0.21-2.26c-0.02-0.48-0.25-0.75-0.51-1.08c-0.78-1-1.84-0.41-2.76-0.56c-0.83-0.13-0.71,0.75-0.95,1.11
			c-0.26,0.39-0.42,0.99-0.87,0.99c-0.77-0.01-1.13,0.48-1.56,0.91c-1.11,1.1-2.2,2.23-3.33,3.32c-1.29,1.25-2.19,2.78-2.66,4.45
			c-0.36,1.28-0.84,2.39-1.71,3.36c-0.17,0.18-0.15,0.54-0.32,0.71c-0.62,0.61-0.3,1.36-0.27,2.01c0.03,0.86-1.15,1.02-0.91,2
			c0.29,1.18-0.13,2.27-0.81,3.28c-0.38,0.56-0.52,1.22-0.46,1.95c0.08,0.92,0.01,1.85,0.02,2.77c0.01,0.62,0.02,1.23-0.43,1.75
			c-0.42,0.5-0.45,1.11-0.44,1.74C99.51,100.72,99.49,102.14,99.49,103.57z M246.42,114.41c0,0.57,0.01,1.14,0,1.71
			c-0.02,0.92,0.3,1.56,1.15,2.07c0.93,0.57,1.73,1.36,2.56,2.09c0.67,0.59,1.15,1.49,2.28,1.22c0.11-0.03,0.31,0.19,0.42,0.32
			c0.3,0.37,0.59,0.75,0.84,1.14c0.82,1.29,2.31,1.67,3.44,2.54c1.01,0.77,1.88,1.74,3.07,2.27c0.42,0.19,0.85,0.43,1.18,0.76
			c1.32,1.3,2.91,2.15,4.59,2.86c0.15,0.07,0.36,0.25,0.44,0.2c0.75-0.43,1.6-0.77,2.19-1.37c0.58-0.6,1.18-1.43,1.26-2.21
			c0.1-1,0.48-1.8,0.92-2.63c-0.46-1.76,0.52-3.04,1.48-4.29c0.67-0.88,0.32-2.1,0.8-2.86c1.32-2.07,0.64-4.66,1.98-6.67
			c0.07-0.1-0.01-0.28,0.01-0.42c0.14-0.87,0.11-1.82,0.48-2.57c0.3-0.61,0.36-1.16,0.37-1.77c0.01-0.93,0.14-1.88-0.04-2.77
			c-0.17-0.84,0.47-1.54,0.11-2.46c-0.32-0.8-0.07-1.82-0.07-2.75c0-0.93,0-1.85,0-2.78c0-0.28,0.04-0.58-0.01-0.85
			c-0.05-0.25-0.13-0.58-0.32-0.71c-0.55-0.4-0.54-0.93-0.53-1.5c0.02-1,0.15-2.02-0.04-2.98c-0.19-0.95-0.92-1.81-1.03-2.75
			c-0.11-0.96-1.12-1.44-1.04-2.35c0.06-0.67-0.24-1.05-0.67-1.44c-0.36-0.33-0.49-0.78-0.69-1.2c-0.65-1.38-1.54-2.64-2.33-3.95
			c-0.8-1.31-2.1-2.16-3.09-3.31c-1.16-1.35-2.7-2.45-4.17-3.55c-0.34-0.25-0.49-0.36-0.77,0.01c-0.22,0.28-0.5,0.51-0.75,0.76
			c-1.13,1.13-2.29,2.24-2.07,4.05c-0.63,0.53-0.12,1.53-0.53,1.88c-0.96,0.8-0.77,1.76-0.73,2.71c0.03,0.76-0.08,1.41-0.75,1.83
			c-0.58,0.37-0.57,0.9-0.57,1.48c0,0.33-0.02,0.74-0.2,0.97c-0.84,1.06-0.37,2.77-1.78,3.56c-0.15,0.08-0.16,0.52-0.13,0.77
			c0.12,0.93-0.35,1.69-0.59,2.53c-0.38,1.29-0.59,2.58-1.52,3.66c-0.25,0.29-0.02,0.97-0.04,1.46c-0.01,0.27,0,0.67-0.16,0.77
			c-0.83,0.52-0.75,1.33-0.67,2.08c0.09,0.84-0.14,1.37-0.93,1.76c-0.24,0.12-0.28,0.71-0.36,1.1c-0.11,0.53,0.01,1.27-0.3,1.56
			c-0.63,0.59-0.51,1.24-0.57,1.93c-0.05,0.53,0.24,1.13-0.29,1.59c-0.93,0.8-0.68,2.12-1.34,3.08
			C246.2,112.01,246.44,113.24,246.42,114.41z M228.92,190.67c-1.07,0-2.14-0.03-3.2,0.01c-0.39,0.01-0.77,0.21-1.16,0.27
			c-1.02,0.17-1.1,0.97-1.36,1.76c-0.35,1.06-0.74,2.15-1.37,3.05c-0.71,1.01-0.23,2.51-1.46,3.26c-0.06,0.04-0.02,0.27-0.01,0.41
			c0.14,1.27-0.58,2.32-0.91,3.47c-0.33,1.14-1.25,2.08-1.21,3.33c0.03,1.21-0.07,2.33-1.04,3.21c-0.13,0.12-0.25,0.36-0.24,0.53
			c0.14,1.51-0.75,2.68-1.28,3.96c-0.41,0.99-1.21,1.85-0.89,3.06c0.05,0.2-0.2,0.47-0.31,0.71c-0.17,0.36-0.53,0.74-0.48,1.06
			c0.11,0.82-0.23,1.51-0.6,2.11c-0.86,1.39-0.4,3.21-1.55,4.5c-0.14,0.16,0.01,0.56-0.03,0.84c-0.03,0.26-0.06,0.57-0.22,0.76
			c-0.78,0.93-0.93,2.03-1.09,3.19c-0.18,1.31-0.98,2.5-0.88,3.91c0.01,0.14-0.31,0.28-0.42,0.46c-0.15,0.22-0.35,0.47-0.35,0.7
			c0,0.86-0.28,1.56-0.83,2.24c-0.31,0.38-0.41,0.99-0.45,1.5c-0.09,1.15,0.28,2.41-0.87,3.27c0.14,0.84-0.36,1.37-0.74,2.05
			c-0.37,0.64-0.46,1.49-0.94,2.17c-0.26,0.36-0.43,0.87-0.42,1.3c0.01,1.06-0.19,1.97-0.78,2.9c-0.4,0.64-0.39,1.54-0.52,2.33
			c-0.2,1.19-1.02,2.18-1.03,3.42c-0.89,0.56-0.7,1.46-0.67,2.28c0.02,0.87,0.01,1.67-0.82,2.24c-0.24,0.17-0.45,0.57-0.45,0.86
			c0.01,1.67-0.85,3.09-1.37,4.57c-0.39,1.1-0.9,2.09-0.8,3.3c0.02,0.29-0.16,0.83-0.29,0.85c-0.48,0.06-0.54,0.27-0.56,0.68
			c-0.04,0.53-0.05,1.04-0.22,1.6c-0.5,1.59-0.72,3.27-1.03,4.91c-0.05,0.26-0.07,0.64,0.08,0.8c0.78,0.85,0.26,1.42-0.38,1.91
			c-0.52,0.41-0.66,0.89-0.55,1.48c0.04,0.22,0.24,0.4,0.36,0.6c0.16-0.17,0.37-0.31,0.47-0.51c0.2-0.41-0.42-1.15,0.63-1.27
			c0.25-0.03,0.29-1.05,0.64-1.35c0.8-0.68,1.03-1.47,0.87-2.43c-0.1-0.6,0.21-1.15,0.62-1.2c1.23-0.15,1.46-1.13,1.9-1.96
			c0.09-0.17,0.05-0.44,0.17-0.56c0.45-0.46,0.63-0.97,0.83-1.59c0.18-0.57,0.55-1.23,0.89-1.74c0.67-1.01,0.54-2.46,1.74-3.14
			c0.11-0.06,0.26-0.2,0.26-0.31c0.04-2.11,2.24-3.36,2.18-5.52c0-0.15,0.31-0.28,0.43-0.46c0.52-0.78,1.2-1.51,1.46-2.38
			c0.27-0.9,0.66-1.72,1.01-2.58c0.28-0.69,0.09-1.59,0.92-2.05c0.85-0.47,0.09-1.58,0.84-2.1c0.03-0.02-0.03-0.17,0.01-0.2
			c1.48-1.43,2.01-3.47,3.25-5.07c0.42-0.54,0.75-1.28,0.6-2.09c-0.28-1.52,0.41-2.77,1.24-3.96c0.8-1.15,1-2.57,1.67-3.8
			c0.35-0.64,0.45-1.47,0.86-2.2c0.99-1.78,1.64-3.75,2.67-5.5c0.77-1.32,0.91-2.94,2.08-4.06c0.78-0.75,1.01-1.75,0.87-2.84
			c-0.06-0.5,0.17-0.87,0.41-1.33c0.68-1.27,2.01-2.29,1.74-3.98c-0.02-0.13,0.19-0.42,0.3-0.43c0.95-0.02,0.65-0.92,0.93-1.37
			c0.85-1.36,1.46-2.87,2.62-4.04c0.22-0.22,0.29-0.59,0.4-0.9c0.16-0.43,0.3-0.87,0.43-1.32c0.34-1.16,1.1-2.12,1.55-3.2
			c0.48-1.14,0.94-2.24,1.87-3.06c0.36-0.32,0.42-0.67,0.44-1.11c0.01-0.32,0.23-0.62,0.3-0.94c0.31-1.49,1.67-2.62,1.44-4.34
			c-0.05-0.4,0.51-0.9,0.83-1.33c0.25-0.33,0.62-0.59,0.81-0.95c0.2-0.38,0.43-1.14,0.31-1.22c-0.63-0.42-0.56-1.62-1.7-1.46
			c-0.7,0.1-1.48,0.19-2.12-0.03c-0.79-0.27-1.22,0.92-2.12,0.26c-0.47-0.35-1.34-0.18-2.03-0.21
			C230.35,190.65,229.64,190.67,228.92,190.67z M165.74,235.46c-0.05-0.85-0.1-1.62-0.15-2.39c-0.98-0.45-0.46-1.58-0.93-2.16
			c-1.2-1.47-1.12-3.38-1.89-5c-0.32-0.69-0.72-1.47-0.85-2.19c-0.16-0.86-0.2-1.75-0.51-2.58c-0.09-0.25-0.17-0.56-0.36-0.69
			c-0.58-0.4-0.47-0.96-0.49-1.52c-0.02-0.75,0.06-1.47-0.4-2.19c-0.53-0.84-0.58-1.92-0.78-2.85c-0.22-1.01-1.4-1.66-0.95-2.83
			c-1.13-0.79-0.81-1.97-0.87-3.06c-0.01-0.25-0.17-0.49-0.28-0.74c-0.64-1.52-0.8-3.22-1.85-4.57c0.18-1.89-1.55-3.31-1.3-5.24
			c0.02-0.15-0.23-0.32-0.32-0.5c-0.18-0.35-0.44-0.7-0.5-1.07c-0.2-1.27-0.69-2.43-1.32-3.51c-0.55-0.96-1.21-1.79-2.59-1.74
			c-0.8,0.03-1.58-0.14-2.43,0c-1.09,0.18-2.34,0.25-3.35-0.11c-0.93-0.33-1.9-0.45-2.63-0.19c-1.18,0.42-2.32,0.28-3.48,0.35
			c-0.14,0.01-0.33-0.06-0.42,0.01c-0.31,0.23-0.83,0.49-0.85,0.77c-0.07,1.09-0.37,2.37,0.43,3.19c0.68,0.69,0.61,1.65,1.27,2.28
			c0.79,0.75,0.23,1.74,0.39,2.61c0.04,0.19,0.1,0.47,0.23,0.53c0.77,0.37,0.75,1.25,0.82,1.79c0.12,0.96,1.1,1.43,1.07,2.35
			c-0.01,0.52,0.18,0.88,0.49,1.3c0.63,0.85,1.46,1.77,1.57,2.73c0.13,1.2,0.8,2.12,1.1,3.21c0.28,1.04,1.29,1.86,1.28,3.09
			c0.69,0.44,0.77,1.11,0.72,1.85c-0.01,0.1,0.26,0.23,0.4,0.34c0.22,0.16,0.63,0.29,0.64,0.45c0.07,1.05,0.81,1.83,1.03,2.78
			c0.13,0.57,0.39,0.98,0.62,1.46c0.61,1.26,1.51,2.32,2.08,3.62c0.27,0.62,0.03,1.45,0.41,1.72c1,0.7,1,1.94,1.77,2.72
			c0.41,0.41,0.33,1.25,1.12,1.34c0.95,0.11,0.39,0.99,0.77,1.49c1.7,2.22,2.79,4.87,4.58,7.06c0.15,0.19,0.12,0.52,0.24,0.75
			c0.87,1.7,1.64,3.48,2.67,5.08c0.91,1.41,2.04,2.68,2.83,4.17c0.19,0.35,0.41,0.68,0.6,1.03c0.52,1,1.26,1.9,1.16,3.16
			c-0.06,0.8,0.43,1.38,0.94,1.96c0.44,0.5,1.11,1.08,1.12,1.64c0.03,1.47,1.21,1.72,2.08,2.25c0.27,0.17,0.74,0.16,1.05-0.56
			c0.4-0.94,0.49-1.65,0.03-2.5c-0.34-0.64-0.91-1.3-0.91-1.95c0-1.47-0.43-2.77-0.86-4.15c-0.53-1.7-0.94-3.46-1.46-5.17
			c-0.38-1.25-0.84-2.43-0.72-3.75c0.05-0.59-0.26-0.99-0.53-1.5C166.57,238.44,165.13,237.25,165.74,235.46z M168.62,86.29
			c0.21-0.79,0-1.41-0.61-2.06c-0.64-0.69-0.76-1.82-1.82-2.18c-1.23-1.97-2.92-3.46-4.79-4.83c-1.28-0.94-2.42-2.09-3.61-3.15
			c-0.21-0.19-0.38-0.43-0.61-0.6c-0.88-0.62-1.79-1.18-2.65-1.82c-0.83-0.62-1.7-1.21-2.37-1.98c-0.75-0.87-2.18-0.64-2.69-1.79
			c-0.26-0.57-1.28,0.26-1.39-0.87c-0.04-0.45-1.01-0.81-1.55-1.22c-0.11-0.08-0.24-0.28-0.31-0.26c-1.11,0.33-1.79-0.57-2.58-0.99
			c-0.87-0.46-1.69-0.87-2.69-0.73c-0.8,0.12-1.43-0.31-2.11-0.59c-1.68-0.71-2.61-0.14-2.63,1.64c-0.01,0.5,0.13,0.89,0.38,1.34
			c0.3,0.55,0.6,1.2,0.49,1.93c-0.15,1.06,0.09,2.07,0.94,2.79c0.49,0.41,0.29,0.9,0.32,1.37c0.06,0.84-0.21,1.87,0.18,2.47
			c0.92,1.41,0.65,3.01,1.06,4.48c0.33,1.21-0.31,2.63,0.88,3.72c0.27,0.25,0.05,1.01,0.3,1.34c0.37,0.46,0.61,0.85,0.62,1.48
			c0.01,0.49,0.22,1.15,0.58,1.43c0.76,0.59,0.65,1.34,0.66,2.1c0.02,0.82-0.21,1.75,0.45,2.36c0.8,0.74,0.01,1.79,0.66,2.52
			c0.26,0.29,0.41,0.68,0.61,1.02c0.14,0.23,0.35,0.44,0.4,0.69c0.31,1.37,0.52,2.77,0.89,4.12c0.17,0.62,0.71,1.13,0.95,1.74
			c0.32,0.83,1.16,0.27,1.66,0.71c0.2,0.17,0.88-0.01,1.19-0.24c0.71-0.53,1.58-0.71,2.29-1.19c0.62-0.42,1.19-0.9,1.79-1.35
			c0.54-0.41,1.04-0.97,1.65-1.17c0.81-0.26,1.33-0.83,1.73-1.43c0.42-0.63,1.48-0.51,1.53-1.45c0.83-0.19,1.12-1.13,1.72-1.42
			c0.49-0.24,0.92-0.52,1.37-0.8c0.5-0.32,0.88-0.58,1.25-1.14c0.56-0.85,1.62-1.41,2.54-1.96c0.88-0.53,1.59-1.24,2.39-1.85
			C168.41,87.95,168.95,87.3,168.62,86.29z M174.24,193.98c0.02,1.09-0.14,2.2,0.66,3.15c0.19,0.22,0.18,0.64,0.19,0.98
			c0.06,1.42-0.34,2.94,0.86,4.13c0.1,1.21,0.67,2.3,0.96,3.46c0.27,1.1,0.04,2.5,1.17,3.35c0.07,0.05,0.01,0.27,0.01,0.41
			c0.02,0.83-0.08,1.59,0.69,2.31c0.45,0.41,0.6,1.38,0.55,2.07c-0.14,1.91,0.84,3.35,1.75,4.84c0.17,0.28,0.38,0.59,0.4,0.89
			c0.07,0.84-0.28,1.95,0.13,2.48c0.57,0.73,0.59,1.48,0.86,2.24c0.35,0.98,1.21,1.77,1.17,2.92c1.15,0.64,0.73,1.97,1.25,2.9
			c0.48,0.85,1,1.66,1.78,2.23c0.26,0.19,0.87,0.23,1.11,0.05c0.54-0.39,1.14-0.82,0.99-1.71c-0.18-1.08,0.12-1.94,0.95-2.82
			c0.93-0.99,1.29-2.43,1.61-3.79c0.18-0.77,0.44-1.52,0.71-2.27c0.26-0.74-0.07-1.72,0.89-2.21c0.11-0.05,0.12-0.38,0.1-0.58
			c-0.05-0.53,0.13-0.9,0.5-1.3c0.61-0.67,0.9-1.49,0.81-2.44c-0.04-0.47-0.1-1.25,0.14-1.39c0.83-0.47,0.9-1.41,0.93-1.97
			c0.05-0.97,0.97-1.34,1.04-2.16c0.09-1.08-0.35-2.28,0.84-3.09c0.13-0.09,0.03-0.54,0.02-0.83c-0.02-0.5-0.03-0.95,0.44-1.33
			c0.23-0.18,0.33-0.57,0.41-0.88c0.3-1.16,0.6-2.32,0.86-3.49c0.22-0.98,0.11-2.15,0.61-2.93c0.98-1.51,0.58-3.08,0.66-4.64
			c0.03-0.65-0.83-1.44-1.49-1.46c-0.92-0.03-1.85,0.05-2.77-0.02c-0.94-0.07-1.87-0.37-2.81-0.39c-2.7-0.06-5.4-0.02-8.11-0.02
			c-0.42,0-0.94-0.14-1.26,0.05c-0.99,0.58-1.89,0.43-2.92,0.08c-0.59-0.2-1.42-0.15-1.97,0.13c-0.96,0.49-1.91,0.63-2.96,0.61
			c-1.68-0.03-1.74,0.07-1.76,1.8C174.23,193.56,174.24,193.77,174.24,193.98z M226.93,103.54c0.61,0,1.03,0.01,1.46,0
			c1.03-0.04,1.39-0.33,1.35-1.35c-0.03-0.85,0.18-1.6,0.52-2.35c0.13-0.3,0.26-0.61,0.36-0.92c0.64-2.08,0.97-4.27,2.34-6.07
			c0.15-0.19,0.27-0.54,0.2-0.75c-0.5-1.68,1.07-2.95,0.87-4.55c1.22-0.8,1.18-2.22,1.6-3.39c0.31-0.86,0.68-1.77,0.55-2.77
			c-0.14-1.07,0.98-1.57,1.25-2.46c0.1-0.32-0.02-0.71,0.02-1.06c0.17-1.26,0.42-2.49,0.8-3.71c0.22-0.71,0.43-1.36,0.83-2.01
			c0.37-0.6,0.07-1.39,0.4-2.17c0.46-1.09,0.08-2.08-1.55-1.89c-1.39,0.17-2.64,1.08-4.13,0.87c-0.13-0.02-0.29,0.29-0.46,0.4
			c-0.17,0.1-0.37,0.12-0.56,0.18c-0.25,0.08-0.5,0.23-0.75,0.24c-1.8,0.09-3.35,0.8-4.78,1.86c-0.16,0.12-0.36,0.3-0.52,0.27
			c-1.09-0.19-1.91,0.22-2.55,1.08c-0.07,0.1-0.23,0.22-0.33,0.2c-0.86-0.16-1.44,0.23-2.03,0.82c-0.22,0.21-0.91-0.11-1.22,0.08
			c-0.36,0.22-0.52,0.75-0.79,1.12c-0.06,0.09-0.26,0.14-0.37,0.11c-0.92-0.28-1.1,0.94-1.99,0.93c-0.53,0-1.11,0.63-1.65,0.96
			c-1.27,0.78-2.31,1.93-3.46,2.92c-0.55,0.48-0.66,1.6-1.83,1.21c-0.15-0.05-0.45,0.25-0.65,0.43c-1.08,0.97-1.96,2.16-3.28,2.89
			c-0.42,0.23-0.63,0.85-0.91,1.3c-0.07,0.12-0.13,0.35-0.07,0.44c0.39,0.55,0.34,1.23,0.85,1.8c1.1,1.21,2.66,1.93,3.49,3.4
			c0.09,0.16,0.33,0.39,0.47,0.36c0.98-0.16,1.33,0.66,1.87,1.16c0.73,0.67,1.38,1.44,2.13,2.09c0.76,0.67,1.58,1.3,2.41,1.89
			c0.85,0.59,1.82,1.02,2.32,2.01c0.91,0.04,1.06,0.89,1.51,1.41c1.3-0.31,1.91,0.68,2.6,1.44
			C224.32,103.15,225.51,103.8,226.93,103.54z M241.8,169.75c1.92,0,3.84,0,5.76,0c1.37,0,2.52-0.72,3.19-1.98
			c0.71-1.35,1.81-2.44,2.32-3.95c0.24-0.7,1.26-1.09,1.15-2.08c0.95-0.51,0.73-1.42,0.76-2.25c0-0.12,0.06-0.27,0.15-0.36
			c0.64-0.64,0.85-1.48,1.21-2.27c0.37-0.82,0.81-1.65,1.19-2.49c0.8-1.76,0.47-3.32-1.14-4.22c-0.57-0.32-0.98-0.75-1.43-1.15
			c-0.59-0.51-1.13-1.08-1.66-1.65c-0.52-0.57-1.31-0.86-1.65-1.62c-0.07-0.15-0.31-0.29-0.49-0.31c-0.35-0.05-0.76,0.1-1.05-0.05
			c-0.29-0.15-0.42-0.6-0.7-0.81c-1.39-1.08-2.77-2.18-4.25-3.14c-0.5-0.33-0.8-1.02-1.2-1.08c-1.09-0.15-1.81-1.09-3-1.13
			c-0.6-0.02-1.09,0.09-1.62,0.12c-1.02,0.06-0.91,0.66-1.16,1.25c-0.44,1.03-0.97,1.98-1.25,3.12c-0.3,1.24-0.67,2.64-1.37,3.66
			c-0.71,1.04-0.59,2.35-1.48,3.28c-0.2,0.21-0.56,0.89-0.1,1.56c0.28,0.41,0.2,1.22-0.48,1.67c-0.54,0.35-0.91,0.86-0.76,1.6
			c0.03,0.17-0.04,0.47-0.16,0.55c-0.87,0.59-0.69,1.47-0.67,2.29c0.02,0.57-0.1,1.05-0.42,1.54c-0.37,0.57-0.54,1.22-0.46,1.94
			c0.11,1.03-0.71,1.95-0.41,3.02c-1.27,0.83-0.74,2.13-0.86,3.27c-0.1,0.89,0.65,1.55,1.11,1.59c1.23,0.11,2.46,0.99,3.63,0.45
			c1.04-0.48,2.03-0.33,3.04-0.37C238.95,169.71,240.38,169.75,241.8,169.75z M137.52,169.75c0.85,0,1.71-0.04,2.56,0.01
			c0.84,0.05,1.61-0.14,2.38-0.43c1.03-0.38,1.37-0.88,1.46-1.96c0.13-1.47-0.38-2.78-0.85-4.13c-0.61-1.76-1.43-3.48-1.31-5.43
			c0.02-0.4,0.08-0.99-0.15-1.19c-0.81-0.74-0.74-1.95-1.38-2.62c-0.97-1.03-0.4-2.14-0.6-3.19c-0.01-0.06-0.07-0.11-0.1-0.17
			c-1.02-2.07-1.42-4.38-2.46-6.44c-0.27-0.54-0.51-1.09-0.44-1.74c0.08-0.78-0.33-1.3-0.95-1.76c-0.89-0.67-2.04-0.71-2.72-0.24
			c-0.94,0.65-2.23,0.75-2.88,1.87c-0.42,0.73-1.22,1.05-1.98,1.37c-1.4,0.58-2.62,1.41-3.64,2.55c-0.49,0.55-1.18,0.97-1.69,1.45
			c-0.53,0.5-1.03,0.85-1.66,1.15c-0.54,0.25-1.24,0.56-1.44,1.03c-0.28,0.64-0.56,1.03-1.23,1.18c-0.09,0.02-0.14,0.36-0.14,0.56
			c-0.02,0.57,0.05,1.14-0.02,1.7c-0.2,1.71,0.75,3.09,1.27,4.59c0.17,0.49,1.01,0.08,0.89,0.88c-0.21,1.37,1.08,2.25,1.28,3.51
			c1.02,0.11,0.9,0.87,0.82,1.53c-0.09,0.78,0.21,1.33,0.8,1.81c0.49,0.4,1.31,0.95,1.27,1.34c-0.11,0.97,0.68,1.33,0.98,1.98
			c0.44,0.98,2.18,1.41,3.31,1.24c0.85-0.12,1.69-0.96,2.66-0.07c0.27,0.25,1.15,0.25,1.42,0c0.71-0.65,1.47-0.32,2.21-0.37
			C135.96,169.7,136.74,169.75,137.52,169.75z"/>
	</g>
</g>
<g>
	<g>
		<path d="M29.77,249.6c1.36,0.13,3.99,47.84,5.54,48.67c-1.77-0.9-12.72-0.51-14.14-1.82c1.68-0.63,0.22-8.29,1.28-8.04
			c-0.99,0.22-6.01-0.25-4.34-0.78c-1.54,0.4-2.59,8.36-2.96,8.01c1.13,0.9-10.93-0.1-11.97,0.49c0.12,0.28,8.99-46.46,8.2-47.43
			C12.89,247.78,30.3,249.28,29.77,249.6z M21.51,279.68c1.05-5.27-0.92-11.98,0.45-19.08c-3.54,8.1-3.07,15.79-5.05,18.66
			C18.59,278.62,22.04,279.35,21.51,279.68z"/>
		<path d="M48.22,250.65c1.36,0.13-2.51,37.96-0.96,38.79c-1.77-0.9,7.35,0.64,5.93-0.67c1.68-0.63-0.14,9.74,0.92,9.98
			c-0.99,0.22-21.41-1.12-19.74-1.66c-1.54,0.4,1.33-47.46,0.97-47.81C36.46,250.18,48.76,250.33,48.22,250.65z"/>
		<path d="M82.25,280.41c1.09,4.88-0.93,8.2,0.28,11c-2.11,1.07-1.28,3.95-3.97,4.21c0.41,0.94-2.54,3-3.54,4.01
			c-3.05,0.98-6.03,1.07-7.03,0.39c-4.08,0.26-6.16-0.8-8.49-2.09c-0.85-0.05-1.72-1.65-3.9-2.79c-1.01-1.45-1.76-3.03-2.66-5.97
			c1.39-2.89,1.84-4.86,0.86-10.92c0.29,1.6,0.41-8.15,1.3-8.15c-0.35-3.26-0.29-6.42,0.9-9.58c-0.4-1.11,1.12-3.97,1.08-5.57
			c2.82-0.48,3.2-2.72,5.85-3.46c2.56-0.14,5.4-1.26,6.47-0.86c3.79-0.13,6.43,1.73,6.82,2.36c2.99,1.52,4.76,1.29,5.05,3.71
			c0.55,0.92,2.37,3.09,1.69,5.7c0.82,2.21-0.47,4.37,0.38,10.47C82.61,272.42,82.79,280.08,82.25,280.41z M70.82,264.15
			c1.49-2.08-0.27-3.54,1.07-3.33c-1.98-1.53-0.83-0.75-3.01-2.11c1.04-0.66-0.75,0.44-0.06,1.17c-1.36,0.69-2.23,1.94-0.7,3.84
			c-1.54,0.4-2.63,22.01-2.99,21.65c0.97,3.64,1.67,5.08,0.81,6.33c0.31,0.93,0.7,1.55,0.73,0.62c2.35-0.88,3.28,0.23,2.3-1.69
			c0.56,0.87,0.44-2.53,1.49-5.32C69.84,286.8,71.36,263.82,70.82,264.15z"/>
		<path d="M112.92,254.34c1.36,0.13-3.05,47.44-1.5,48.27c-1.77-0.9-10.93-0.4-12.35-1.71c1.68-0.63-4.78-21.63-3.72-21.38
			c-0.99,0.22-2.83,21.53-1.16,21c-1.54,0.4-11.66-0.69-12.03-1.04c1.13,0.9,4.5-46.73,3.46-46.14c0.12,0.28,10.3,1.13,9.52,0.15
			c1.51-0.92,7.58,22.23,6.31,21.05c0.29,1.6,1.16-21.37,2.06-21.37C102.88,254.65,113.46,254.01,112.92,254.34z"/>
		<path d="M114.87,254.45c1.36,0.13,20.18,1.25,21.73,2.08c-1.77-0.9-0.67,9.69-2.1,8.38c1.68-0.63-7.82-0.21-6.76,0.04
			c-0.99,0.22-2.12,8.98-0.45,8.45c-1.54,0.4,6.32,0.33,5.96-0.02c1.13,0.9,1.29,9.64,0.25,10.23c0.12,0.28-7.69,0.1-8.47-0.87
			c1.51-0.92,1.3,10.93,0.03,9.75c0.29,1.6,8.98,0.47,9.88,0.46c-0.62,1.5-1.41,11.17-0.55,9.98c-0.74,0.85-21.37-1.45-22.68-1.48
			C113.25,302.54,115.41,254.12,114.87,254.45z"/>
	</g>
</g>
<g>
	<g>
		<path d="M266.51,262.37c1.36,0.13-11.75,1.25-10.2,2.09c-1.77-0.9-0.49-3.29-1.92-4.6c1.51-2.26-0.02-2.4,0.7-2.57
			c-1.32-0.2-2.45-0.59-1.46-1.05c-2.28,0.48-2.63,0.33-3.31,0.62c0.81,1.54,1.39,2.2,0.47,4.02c0.28,1.85,0.5,3.28,0.22,3.06
			c2-0.17,3.63,2.12,4.39,1.86c6.08,4.28,9.46,4.94,11.98,6.87c1.01,3.43,1.82,6.91,3.15,10.34c-0.39,4.21,0.19,5.65-1.75,7.29
			c0.92,2.77-1.75,3.19-3.3,4.51c-1.64,1.94-3.73,1.92-8.33,2.48c-2.02,0.06-4.51,1.05-8.53-0.28c-1.43-0.43-2.89-3.42-4.66-4.58
			c-1.5-2.65-0.95-5.03-2.12-7.92c0.7,0.25-0.84-4.1,0.3-2.88c-0.73-0.41,11.96-0.7,10.23-2.34c1.59,0.69,1.28,5.94,2.19,6.85
			c-0.33,1.69,0.55,2.91,0.86,2.93c0.46,0.38-0.21,1.41,0.59,0.32c1.6,0.04,1.2-0.78,1.45-0.3c1.41-1.6,0.9-1.81,0.66-2.79
			c0.53-3.47,0.34-4.17-1.42-6.87c0.2-0.12-3.68-0.18-5.32-2.16c-4.57-2.38-6.22-2.9-7.04-3.83c-1.97-1.64-2.82-3.15-3.11-4.53
			c-1.07-0.8-0.44-2.62-1.44-5.6c0.51-3.63-1.08-6.13,0.14-7.47c0.71-1.8,1.9-2.83,3.83-5.89c2.43-0.41,5.73-1.73,7.33-0.54
			c3.77-1.47,6.05-0.71,9.19,0.42c1.61-0.48,4.08,0.67,3.6,2.04c1.25,2.99,2.51,4.74,2.86,7.92
			C267.45,260.67,267.05,262.05,266.51,262.37z"/>
		<path d="M291.64,245.35c1.36,0.13,0.62,9.52,2.17,10.36c-1.77-0.9-7.42,0.96-8.84-0.35c1.68-0.63,4.28,38,5.34,38.25
			c-0.99,0.22-13.88,1.27-12.21,0.73c-1.54,0.4-5.25-37.85-5.61-38.2c1.13,0.9-5.45,1.38-6.5,1.96c0.12,0.28-0.96-8.9-1.75-9.88
			C265.75,247.31,292.18,245.03,291.64,245.35z"/>
		<path d="M322.33,270.12c1.85,4.87,0.37,8.19,1.9,11.02c-1.79,1.09-0.67,4.08-3.1,4.52c0.67,1.13-2.07,3.43-2.92,4.76
			c-2.9,1.3-5.8,1.76-6.8,1.5c-4.07,0.66-6.21-0.03-8.66-1c-0.97,0.28-2.03-1.06-4.47-2c-1.27-1.25-2.3-2.71-3.52-5.6
			c1.08-2.84,0.99-4.79-0.77-10.83c0.29,1.6-0.88-8.12,0.01-8.12c-1.11-3.24-1.59-6.41-0.71-9.59c-0.72-1.14,0.52-4.1,0.21-5.89
			c2.56-0.66,2.73-3.15,5.23-4.21c2.41-0.45,5.18-1.95,6.23-1.97c3.78-0.53,6.48,0.97,7,1.26c3.11,1.2,5.08,0.7,5.62,2.92
			c0.81,0.72,2.91,2.76,2.54,5.33c1.14,2.16,0.38,4.29,2.01,10.37C321.39,262.16,322.87,269.8,322.33,270.12z M308.46,255.88
			c1.14-2.07-0.84-3.51,0.4-3.26c-2.08-1.49-0.97-0.63-3.15-1.86c1.04-0.56-0.71,0.62,0.06,1.4c-1.28,0.75-1.91,2.02,0,3.91
			c-1.54,0.4,0.9,21.93,0.53,21.57c1.41,3.63,2.37,5.05,1.62,6.25c0.41,0.89,0.85,1.43,0.88,0.37c2.35-1.01,3.22,0.01,2.11-1.94
			c0.45,0.83,0.04-2.58,0.65-5.36C310.95,278.45,309,255.55,308.46,255.88z"/>
		<path d="M321.08,242.33c1.36,0.13,8.33-0.81,9.88,0.02c4.02-1.5,9.6-0.56,10.27-1.64c3.78-0.39,4.28,1.47,6.82,3.42
			c0.49,1.92,0.82,4.57,2.9,8.06c-1.17,4.07-1.19,6.08-2.34,7.08c0.34,2.25-0.7,2.93-4.4,4.05c2.61,0.63,4.21,1.53,4.37,1.48
			c2.45,0,3.44,2.32,2.47,1.96c0.58,2.42,0.58,3.09,1.87,6.9c-0.62,1.5,0.41,14.14,1.27,12.95c-0.74,0.85-11.41,0.94-12.73,0.91
			c1.55,1.09-1.35-15.66-0.76-15.64c0.24-1.9,0.36-4.26-1.71-4.57c0.8-0.84,0.11,0.29-3.16,0.14c1.02,0.58,3.43,20.28,2.58,20.97
			c-0.58-0.81-11.66,0.77-12.47,1.42C326.65,290.08,321.62,242.01,321.08,242.33z M334.18,249.14c1.36,0.13,0.72,10.57,2.27,11.41
			c-0.39-1.04,2.19-0.22,1.28-1.97c2.2-1.06,1.06-1.43,1.91-3.26c-0.99,0.22-1.87-2.59-0.2-3.12c-1.7-1.1-1.89-2.56-2.84-3.32
			C337.15,249.36,336.14,248.67,334.18,249.14z"/>
		<path d="M350.24,239.33c1.36,0.13,20.1-2.02,21.65-1.19c-1.77-0.9,0.84,9.65-0.59,8.34c1.68-0.63-7.79,1.1-6.73,1.35
			c-0.99,0.22-0.69,8.95,0.98,8.42c-1.54,0.4,6.3-0.89,5.93-1.25c1.13,0.9,2.73,9.61,1.68,10.19c0.12,0.28-7.66,1.33-8.44,0.35
			c1.51-0.92,2.96,10.89,1.69,9.71c0.29,1.6,8.95-0.97,9.85-0.98c-0.62,1.5,0.1,11.14,0.96,9.95c-0.74,0.85-21.29,1.95-22.6,1.92
			C356.17,287.25,350.78,239.01,350.24,239.33z"/>
	</g>
</g>
<rect x="143.7" y="434.96" style="fill:none;" width="2.37" height="0"/>
</svg>
