<svg width="25" height="26" viewBox="0 0 25 26" fill="none" xmlns="http://www.w3.org/2000/svg">
<path d="M9.08496 0.5L8.46973 3.6543C7.44378 4.04225 6.49513 4.58425 5.66211 5.26807L2.63232 4.22314L-0.282715 9.27685L2.1416 11.3838C2.05564 11.9112 2 12.4483 2 13C2 13.5517 2.05564 14.0888 2.1416 14.6162L-0.282715 16.7231L2.63232 21.7769L5.66211 20.7319C6.49513 21.4157 7.44378 21.9577 8.46973 22.3457L9.08496 25.5H14.915L15.5303 22.3457C16.5562 21.9577 17.5049 21.4157 18.3379 20.7319L21.3677 21.7769L24.2827 16.7231L21.8584 14.6162C21.9444 14.0888 22 13.5517 22 13C22 12.4483 21.9444 11.9112 21.8584 11.3838L24.2827 9.27685L21.3677 4.22314L18.3379 5.26807C17.5049 4.58425 16.5562 4.04225 15.5303 3.6543L14.915 0.5H9.08496ZM12 8C14.7613 8 17 10.2387 17 13C17 15.7612 14.7613 18 12 18C9.23875 18 7 15.7612 7 13C7 10.2387 9.23875 8 12 8Z" fill="black"/>
</svg>
